<svg width="25" height="25" viewBox="0 0 25 25" fill="none" xmlns="http://www.w3.org/2000/svg">
<g id="01">
<path id="Vector" d="M19.7871 0.0630693L5.38715 0.0459797C4.11455 0.0458987 2.8939 0.550622 1.993 1.44942C1.09209 2.34822 0.58451 3.56768 0.581609 4.84028L0.564962 19.2403C0.56492 20.5129 1.06968 21.7335 1.96851 22.6345C2.86733 23.5354 4.08681 24.043 5.35941 24.046L19.7594 24.0631C21.032 24.0632 22.2527 23.5585 23.1537 22.6597C24.0546 21.7609 24.5621 20.5414 24.5649 19.2688L24.5816 4.86876C24.5817 3.59613 24.077 2.37541 23.1782 1.47446C22.2793 0.573503 21.0598 0.0659137 19.7871 0.0630693ZM22.1649 19.2659C22.1635 19.9022 21.9097 20.5119 21.4592 20.9613C21.0088 21.4107 20.3985 21.6631 19.7622 21.6631L5.36218 21.646C4.72586 21.6446 4.11607 21.3908 3.66664 20.9403C3.21722 20.4898 2.96486 19.8794 2.96496 19.2431L2.98161 4.84313C2.98298 4.20681 3.23674 3.59703 3.68721 3.14761C4.13768 2.69819 4.74806 2.44586 5.38438 2.44598L19.7844 2.46307C20.4207 2.46455 21.0304 2.71837 21.4798 3.16883C21.9292 3.61929 22.1816 4.22962 22.1816 4.86591L22.1649 19.2659Z" fill="black"/>
<path id="Vector_2" d="M12.5794 6.70069C11.5206 6.69955 10.4852 7.01241 9.60417 7.59971C8.72316 8.18701 8.0361 9.02236 7.62985 10.0001C7.22361 10.9779 7.11643 12.0542 7.32187 13.093C7.52731 14.1317 8.03614 15.0862 8.78402 15.8357C9.53191 16.5853 10.4853 17.0962 11.5235 17.304C12.5618 17.5117 13.6383 17.407 14.617 17.0029C15.5957 16.5988 16.4326 15.9136 17.0218 15.0339C17.6111 14.1542 17.9263 13.1196 17.9275 12.0607C17.9275 10.6412 17.3644 9.27968 16.3618 8.27481C15.3592 7.26995 13.9989 6.70383 12.5794 6.70069ZM12.5698 15.008C11.9856 15.0072 11.4148 14.8332 10.9296 14.508C10.4443 14.1828 10.0663 13.721 9.84349 13.181C9.62065 12.641 9.56293 12.0471 9.67762 11.4743C9.79232 10.9015 10.0743 10.3756 10.4879 9.96311C10.9014 9.55058 11.4281 9.26995 12.0011 9.15671C12.5742 9.04347 13.168 9.10271 13.7074 9.32692C14.2468 9.55114 14.7077 9.93026 15.0316 10.4164C15.3556 10.9025 15.5282 11.4737 15.5275 12.0579C15.5258 12.8411 15.2133 13.5916 14.6588 14.1447C14.1043 14.6978 13.353 15.0083 12.5698 15.008Z" fill="black"/>
</g>
</svg>
