<svg width="651" height="51" viewBox="0 0 651 51" fill="none" xmlns="http://www.w3.org/2000/svg">
<path d="M0.248 49V1.896H10.744V49H0.248ZM28.6 49L14.904 28.904H26.424L40.76 49H28.6ZM7.928 34.024V25.768H19.448C20.984 25.768 22.3067 25.4693 23.416 24.872C24.568 24.232 25.4427 23.3573 26.04 22.248C26.68 21.096 27 19.7733 27 18.28C27 16.7867 26.68 15.4853 26.04 14.376C25.4427 13.224 24.568 12.3493 23.416 11.752C22.3067 11.112 20.984 10.792 19.448 10.792H7.928V1.896H18.616C22.4987 1.896 25.8693 2.49333 28.728 3.688C31.5867 4.84 33.784 6.568 35.32 8.872C36.856 11.176 37.624 14.0773 37.624 17.576V18.6C37.624 22.056 36.8347 24.936 35.256 27.24C33.72 29.5013 31.5227 31.208 28.664 32.36C25.848 33.4693 22.4987 34.024 18.616 34.024H7.928ZM66.1445 50.216C61.7498 50.216 58.0165 49.4053 54.9445 47.784C51.9152 46.12 49.6112 43.7733 48.0325 40.744C46.4538 37.7147 45.6645 34.1307 45.6645 29.992V2.28H56.1605V30.376C56.1605 32.424 56.5445 34.216 57.3125 35.752C58.1232 37.2453 59.2538 38.3973 60.7045 39.208C62.1978 40.0187 64.0112 40.424 66.1445 40.424C68.3205 40.424 70.1338 40.0187 71.5845 39.208C73.0778 38.3973 74.2085 37.2453 74.9765 35.752C75.7445 34.2587 76.1285 32.4667 76.1285 30.376V2.28H86.6245V29.992C86.6245 34.1307 85.8352 37.7147 84.2565 40.744C82.6778 43.7733 80.3738 46.12 77.3445 47.784C74.3152 49.4053 70.5818 50.216 66.1445 50.216ZM105.208 49.32V41.128H116.152C118.115 41.128 119.587 40.616 120.568 39.592C121.549 38.568 122.04 37.1173 122.04 35.24C122.04 33.3627 121.549 31.9333 120.568 30.952C119.587 29.928 118.115 29.416 116.152 29.416H105.208V23.08H115.64C118.883 23.08 121.763 23.4853 124.28 24.296C126.797 25.064 128.781 26.3227 130.232 28.072C131.683 29.8213 132.408 32.1893 132.408 35.176V36.072C132.408 38.8453 131.768 41.2347 130.488 43.24C129.208 45.2027 127.331 46.7173 124.856 47.784C122.381 48.808 119.309 49.32 115.64 49.32H105.208ZM96.248 49.32V1.896H106.488V49.32H96.248ZM105.208 27.752V21.48H114.424C116.429 21.48 117.88 20.968 118.776 19.944C119.672 18.92 120.12 17.5547 120.12 15.848C120.12 14.056 119.672 12.648 118.776 11.624C117.88 10.6 116.429 10.088 114.424 10.088H105.208V1.896H113.784C119.16 1.896 123.277 3.02666 126.136 5.288C129.037 7.54933 130.488 10.7707 130.488 14.952V15.912C130.488 18.8133 129.741 21.1387 128.248 22.888C126.797 24.6373 124.813 25.896 122.296 26.664C119.821 27.3893 116.984 27.752 113.784 27.752H105.208ZM140.561 49V2.28H150.801V49H140.561ZM149.521 49V40.296H169.937V49H149.521ZM149.521 29.608V20.904H168.465V29.608H149.521ZM149.521 10.984V2.28H169.489V10.984H149.521ZM178.561 49V2.28H195.777L213.377 40.488H215.553L214.273 41.64V2.28H224.129V49H206.785L189.185 10.792H187.009L188.289 9.64V49H178.561ZM250.879 50.216C246.655 50.216 243.092 49.5547 240.191 48.232C237.29 46.8667 235.092 45.032 233.599 42.728C232.106 40.3813 231.359 37.6933 231.359 34.664H241.535C241.535 35.8587 241.855 36.968 242.495 37.992C243.178 39.016 244.202 39.848 245.567 40.488C246.932 41.0853 248.703 41.384 250.879 41.384C252.842 41.384 254.484 41.128 255.807 40.616C257.13 40.104 258.132 39.4 258.815 38.504C259.498 37.5653 259.839 36.4987 259.839 35.304C259.839 33.8107 259.199 32.6373 257.919 31.784C256.639 30.888 254.57 30.312 251.711 30.056L248.191 29.736C243.54 29.352 239.828 27.9013 237.055 25.384C234.282 22.8667 232.895 19.5387 232.895 15.4C232.895 12.4133 233.599 9.832 235.007 7.656C236.458 5.48 238.463 3.816 241.023 2.664C243.583 1.46933 246.612 0.871998 250.111 0.871998C253.78 0.871998 256.916 1.512 259.519 2.792C262.164 4.02933 264.191 5.8 265.599 8.104C267.007 10.3653 267.711 13.032 267.711 16.104H257.471C257.471 14.952 257.194 13.9067 256.639 12.968C256.084 11.9867 255.252 11.1973 254.143 10.6C253.076 10.0027 251.732 9.704 250.111 9.704C248.575 9.704 247.274 9.96 246.207 10.472C245.183 10.984 244.415 11.688 243.903 12.584C243.391 13.4373 243.135 14.376 243.135 15.4C243.135 16.7227 243.604 17.8747 244.543 18.856C245.482 19.8373 247.018 20.4133 249.151 20.584L252.735 20.904C256.148 21.2027 259.156 21.9493 261.759 23.144C264.362 24.296 266.388 25.896 267.839 27.944C269.332 29.9493 270.079 32.4027 270.079 35.304C270.079 38.2907 269.29 40.9147 267.711 43.176C266.175 45.3947 263.978 47.1227 261.119 48.36C258.26 49.5973 254.847 50.216 250.879 50.216ZM290.748 49V2.28H305.212L315.9 28.52H317.116L327.676 2.28H342.396V49H332.028V9.128L333.5 9.256L321.148 39.528H311.164L298.748 9.256L300.348 9.128V49H290.748ZM348.457 49L363.881 2.28H380.841L396.841 49H385.961L373.033 9.512L376.361 10.856H368.105L371.561 9.512L358.953 49H348.457ZM360.169 37.416L363.369 28.712H381.673L384.937 37.416H360.169ZM422.376 50.216C418.152 50.216 414.525 49.4907 411.496 48.04C408.466 46.5467 405.992 44.6053 404.072 42.216C402.152 39.784 400.722 37.1813 399.784 34.408C398.888 31.592 398.44 28.8613 398.44 26.216V24.808C398.44 21.9067 398.909 19.048 399.848 16.232C400.786 13.3733 402.216 10.792 404.135 8.488C406.098 6.184 408.552 4.34933 411.496 2.984C414.482 1.576 418.002 0.871998 422.056 0.871998C426.28 0.871998 430.013 1.66133 433.256 3.24C436.498 4.81866 439.08 7.016 441 9.832C442.962 12.6053 444.114 15.8693 444.456 19.624H433.896C433.597 17.7467 432.914 16.1467 431.847 14.824C430.781 13.5013 429.394 12.4773 427.688 11.752C426.024 11.0267 424.146 10.664 422.056 10.664C419.965 10.664 418.109 11.0267 416.488 11.752C414.866 12.4773 413.501 13.5013 412.392 14.824C411.325 16.1467 410.493 17.7253 409.896 19.56C409.341 21.352 409.064 23.3573 409.064 25.576C409.064 27.752 409.341 29.7573 409.896 31.592C410.493 33.384 411.346 34.9627 412.456 36.328C413.608 37.6507 415.016 38.6747 416.68 39.4C418.344 40.0827 420.242 40.424 422.376 40.424C425.618 40.424 428.349 39.6347 430.568 38.056C432.829 36.4773 434.194 34.3013 434.664 31.528H445.16C444.776 34.9413 443.624 38.0773 441.704 40.936C439.826 43.752 437.245 46.0133 433.96 47.72C430.717 49.384 426.856 50.216 422.376 50.216ZM482.331 49V2.28H492.827V49H482.331ZM452.123 49V2.28H462.619V49H452.123ZM460.763 30.12V20.904H484.187V30.12H460.763ZM498.895 49L514.319 2.28H531.279L547.279 49H536.399L523.471 9.512L526.799 10.856H518.543L521.999 9.512L509.391 49H498.895ZM510.607 37.416L513.807 28.712H532.111L535.375 37.416H510.607ZM562.589 49.256V39.464H571.293C573.469 39.464 575.432 39.144 577.181 38.504C578.93 37.8213 580.424 36.8827 581.661 35.688C582.898 34.4507 583.837 32.9787 584.477 31.272C585.117 29.5227 585.437 27.6027 585.437 25.512C585.437 23.336 585.117 21.3947 584.477 19.688C583.837 17.9813 582.898 16.5307 581.661 15.336C580.424 14.1413 578.93 13.2453 577.181 12.648C575.432 12.008 573.469 11.688 571.293 11.688H562.589V1.896H570.717C574.941 1.896 578.632 2.51466 581.789 3.752C584.946 4.98933 587.592 6.67466 589.725 8.808C591.858 10.9413 593.437 13.3947 594.461 16.168C595.528 18.8987 596.061 21.7787 596.061 24.808V26.216C596.061 29.032 595.528 31.8267 594.461 34.6C593.437 37.3307 591.858 39.8053 589.725 42.024C587.592 44.2 584.946 45.9493 581.789 47.272C578.632 48.5947 574.941 49.256 570.717 49.256H562.589ZM553.373 49.256V1.896H563.869V49.256H553.373ZM625.773 50.216C621.549 50.216 617.858 49.4907 614.701 48.04C611.586 46.5467 609.005 44.6053 606.957 42.216C604.909 39.784 603.373 37.16 602.349 34.344C601.368 31.528 600.877 28.8187 600.877 26.216V24.808C600.877 21.9067 601.389 19.048 602.413 16.232C603.48 13.3733 605.058 10.792 607.149 8.488C609.24 6.184 611.842 4.34933 614.957 2.984C618.072 1.576 621.677 0.871998 625.773 0.871998C629.869 0.871998 633.474 1.576 636.589 2.984C639.704 4.34933 642.306 6.184 644.397 8.488C646.488 10.792 648.066 13.3733 649.133 16.232C650.2 19.048 650.733 21.9067 650.733 24.808V26.216C650.733 28.8187 650.221 31.528 649.197 34.344C648.173 37.16 646.637 39.784 644.589 42.216C642.541 44.6053 639.938 46.5467 636.781 48.04C633.666 49.4907 629.997 50.216 625.773 50.216ZM625.773 40.424C627.992 40.424 629.976 40.04 631.725 39.272C633.517 38.504 635.032 37.4373 636.269 36.072C637.549 34.7067 638.509 33.128 639.149 31.336C639.789 29.544 640.109 27.624 640.109 25.576C640.109 23.4 639.768 21.416 639.085 19.624C638.445 17.7893 637.485 16.2107 636.205 14.888C634.968 13.5227 633.474 12.4773 631.725 11.752C629.976 11.0267 627.992 10.664 625.773 10.664C623.554 10.664 621.57 11.0267 619.821 11.752C618.072 12.4773 616.557 13.5227 615.277 14.888C614.04 16.2107 613.101 17.7893 612.461 19.624C611.821 21.416 611.501 23.4 611.501 25.576C611.501 27.624 611.821 29.544 612.461 31.336C613.101 33.128 614.04 34.7067 615.277 36.072C616.557 37.4373 618.072 38.504 619.821 39.272C621.57 40.04 623.554 40.424 625.773 40.424Z" fill="black"/>
</svg>
