<svg width="19" height="19" viewBox="0 0 19 19" fill="none" xmlns="http://www.w3.org/2000/svg">
<path id="Vector" d="M17.1 18.5L10.8 12.2C10.3 12.6 9.725 12.9167 9.075 13.15C8.425 13.3833 7.73333 13.5 7 13.5C5.18333 13.5 3.64583 12.8708 2.3875 11.6125C1.12917 10.3542 0.5 8.81667 0.5 7C0.5 5.18333 1.12917 3.64583 2.3875 2.3875C3.64583 1.12917 5.18333 0.5 7 0.5C8.81667 0.5 10.3542 1.12917 11.6125 2.3875C12.8708 3.64583 13.5 5.18333 13.5 7C13.5 7.73333 13.3833 8.425 13.15 9.075C12.9167 9.725 12.6 10.3 12.2 10.8L18.5 17.1L17.1 18.5ZM7 11.5C8.25 11.5 9.3125 11.0625 10.1875 10.1875C11.0625 9.3125 11.5 8.25 11.5 7C11.5 5.75 11.0625 4.6875 10.1875 3.8125C9.3125 2.9375 8.25 2.5 7 2.5C5.75 2.5 4.6875 2.9375 3.8125 3.8125C2.9375 4.6875 2.5 5.75 2.5 7C2.5 8.25 2.9375 9.3125 3.8125 10.1875C4.6875 11.0625 5.75 11.5 7 11.5Z" fill="black"/>
</svg>
