<svg width="25" height="25" viewBox="0 0 25 25" fill="none" xmlns="http://www.w3.org/2000/svg">
<g id="Group">
<path id="Vector" d="M24.1979 8.86108C23.1039 4.72635 19.7198 1.39762 15.4632 0.35921C11.2065 -0.679199 6.58089 0.663169 3.64703 3.89455C0.0255923 7.84396 -0.439095 13.774 2.48583 18.2703C2.25505 19.8875 2.07004 21.5047 1.83926 23.1218C1.74702 23.7058 2.47908 24.111 2.98285 23.9768C4.58578 23.5295 6.23444 23.1271 7.83737 22.6797C12.1847 24.437 17.2218 23.6343 20.705 20.4934C23.9589 17.5769 25.292 12.9958 24.1979 8.86108ZM20.9831 17.5285C18.2315 21.4789 12.8274 22.9552 8.38874 20.973C8.38874 20.973 8.38874 20.973 8.34295 20.973C8.15992 20.8829 7.93106 20.8377 7.65631 20.8823C6.37397 21.2402 5.09168 21.5532 3.80933 21.9111C3.94793 20.833 4.08647 19.7998 4.22507 18.7217C4.27127 18.3623 4.3633 17.958 4.18059 17.5984C4.0435 17.3736 3.86062 17.1487 3.72359 16.879C3.40373 16.3395 3.1297 15.7551 2.90146 15.1707C2.17132 13.1032 2.12819 10.8117 2.81732 8.74585C4.01189 5.10805 7.40301 2.37143 11.2493 1.92671C15.2331 1.39229 19.214 3.28402 21.2705 6.56625C23.3726 9.93839 23.2303 14.2514 20.9831 17.5285Z" fill="black"/>
<path id="Vector_2" d="M18.9276 13.3029L16.8692 11.7279C16.2288 11.233 15.3588 11.3218 14.8088 11.8603L14.213 12.4437C13.7554 12.1735 13.3437 11.8585 12.9321 11.4986C12.5663 11.1388 12.2463 10.6891 11.9721 10.2395L12.568 9.65612C13.118 9.11763 13.1648 8.26405 12.7077 7.6345L11.1076 5.56589C10.7877 5.11622 10.2844 4.84606 9.73498 4.8454C9.18564 4.79982 8.63598 5.02381 8.2693 5.38281L6.48173 7.1329C5.47336 8.12013 5.24268 9.64743 5.88219 10.9062C6.7502 12.5246 7.84733 13.9637 9.1278 15.2232C10.4083 16.4827 11.9179 17.5628 13.5193 18.4183C14.0226 18.6885 14.5261 18.779 15.0297 18.7796C15.8538 18.7805 16.7241 18.4671 17.32 17.8388L19.1075 16.0887C19.4742 15.7297 19.7038 15.1908 19.6586 14.6516C19.6592 14.1125 19.3851 13.6179 18.9276 13.3029ZM17.8271 14.8292L16.0395 16.5792C15.5811 17.028 14.8943 17.117 14.3452 16.8468C12.881 16.0813 11.5544 15.1362 10.3654 13.9667C9.17639 12.7971 8.21645 11.493 7.4398 10.0544C7.16573 9.51493 7.25807 8.84111 7.71642 8.39237L9.50399 6.64227C9.50399 6.64227 9.50399 6.64227 9.54977 6.64233C9.59556 6.64238 9.59556 6.64238 9.5955 6.68731L11.0584 8.57605L10.4626 9.11448C10.0042 9.56322 9.86605 10.2819 10.1859 10.8664C10.5513 11.5857 11.0542 12.2153 11.6029 12.7551C12.1517 13.2948 12.7921 13.7898 13.5242 14.1501C14.119 14.4653 14.806 14.3314 15.2643 13.8826L15.906 13.2544L17.7814 14.6943C17.7814 14.6943 17.8272 14.6944 17.8272 14.7393C17.8271 14.7842 17.8271 14.8292 17.8271 14.8292Z" fill="black"/>
</g>
</svg>
