<svg width="17" height="13" viewBox="0 0 17 13" fill="none" xmlns="http://www.w3.org/2000/svg">
<path id="Vector" fill-rule="evenodd" clip-rule="evenodd" d="M1.77088 5.40888H12.4328L9.07888 2.25362C8.97131 2.15379 8.88549 2.03282 8.82681 1.89829C8.76812 1.76377 8.73783 1.61858 8.73783 1.47181C8.73783 1.32504 8.76812 1.17986 8.82681 1.04533C8.88549 0.910806 8.97131 0.789839 9.07888 0.69C9.52513 0.27 10.2391 0.27 10.6854 0.69L16.0334 5.72125C16.4884 6.15 16.4884 6.85 16.0334 7.27875L10.6854 12.31C10.2391 12.73 9.52513 12.73 9.07888 12.31C8.9714 12.2109 8.88561 12.0907 8.82693 11.9568C8.76825 11.8229 8.73795 11.6783 8.73795 11.5321C8.73795 11.3859 8.76825 11.2414 8.82693 11.1075C8.88561 10.9736 8.9714 10.8533 9.07888 10.7542L12.4328 7.59812H1.77088C1.15576 7.59812 0.624634 7.12125 0.624634 6.50437C0.624634 5.88575 1.15576 5.40888 1.77088 5.40888Z" fill="#A2DDFF"/>
</svg>
